<mxfile host="app.diagrams.net" modified="2023-08-24T17:54:06.982Z" agent="Mozilla/5.0 (Windows NT 10.0; Win64; x64) AppleWebKit/537.36 (KHTML, like Gecko) Chrome/116.0.0.0 Safari/537.36" etag="UFg6bWkDHbKi7XFR1hny" version="21.6.5" type="device">
  <diagram name="Page-1" id="RhVXnUdQvMyFJzeVA4Ct">
    <mxGraphModel dx="661" dy="688" grid="1" gridSize="10" guides="1" tooltips="1" connect="0" arrows="0" fold="1" page="1" pageScale="1" pageWidth="850" pageHeight="1100" math="0" shadow="0">
      <root>
        <mxCell id="0" />
        <mxCell id="1" parent="0" />
        <mxCell id="DNH00c0iW3-mDj3kYG-k-1" value="" style="rounded=0;whiteSpace=wrap;html=1;" vertex="1" parent="1">
          <mxGeometry x="40" y="80" width="360" height="280" as="geometry" />
        </mxCell>
        <mxCell id="DNH00c0iW3-mDj3kYG-k-2" value="" style="rounded=0;whiteSpace=wrap;html=1;" vertex="1" parent="1">
          <mxGeometry x="90" y="140" width="210" height="200" as="geometry" />
        </mxCell>
        <mxCell id="DNH00c0iW3-mDj3kYG-k-3" value="&lt;ul&gt;&lt;li&gt;Dog Name [Remove]&lt;/li&gt;&lt;li&gt;Dog Name [Remove]&lt;/li&gt;&lt;li style=&quot;&quot;&gt;Dog Name [Remove]&lt;/li&gt;&lt;li style=&quot;&quot;&gt;Dog Name [Remove]&lt;/li&gt;&lt;/ul&gt;" style="text;html=1;strokeColor=none;fillColor=none;align=left;verticalAlign=middle;whiteSpace=wrap;rounded=0;" vertex="1" parent="1">
          <mxGeometry x="120" y="155" width="160" height="160" as="geometry" />
        </mxCell>
        <mxCell id="DNH00c0iW3-mDj3kYG-k-4" value="Dog List -- Home Page" style="text;html=1;strokeColor=none;fillColor=none;align=center;verticalAlign=middle;whiteSpace=wrap;rounded=0;" vertex="1" parent="1">
          <mxGeometry x="40" y="50" width="150" height="30" as="geometry" />
        </mxCell>
        <mxCell id="DNH00c0iW3-mDj3kYG-k-5" value="" style="rounded=0;whiteSpace=wrap;html=1;" vertex="1" parent="1">
          <mxGeometry x="440" y="80" width="360" height="280" as="geometry" />
        </mxCell>
        <mxCell id="DNH00c0iW3-mDj3kYG-k-6" value="Dog Details" style="text;html=1;strokeColor=none;fillColor=none;align=center;verticalAlign=middle;whiteSpace=wrap;rounded=0;" vertex="1" parent="1">
          <mxGeometry x="440" y="50" width="100" height="30" as="geometry" />
        </mxCell>
        <mxCell id="DNH00c0iW3-mDj3kYG-k-7" value="" style="rounded=0;whiteSpace=wrap;html=1;" vertex="1" parent="1">
          <mxGeometry x="480" y="140" width="280" height="180" as="geometry" />
        </mxCell>
        <mxCell id="DNH00c0iW3-mDj3kYG-k-8" value="Dog Name&lt;br&gt;&lt;br&gt;&lt;span style=&quot;white-space: pre;&quot;&gt;&#x9;&lt;/span&gt;Dog City&lt;br&gt;&lt;br&gt;&lt;span style=&quot;white-space: pre;&quot;&gt;&#x9;&lt;/span&gt;Dog Walker (if assigned)" style="text;html=1;strokeColor=none;fillColor=none;align=left;verticalAlign=middle;whiteSpace=wrap;rounded=0;" vertex="1" parent="1">
          <mxGeometry x="520" y="140" width="200" height="140" as="geometry" />
        </mxCell>
        <mxCell id="DNH00c0iW3-mDj3kYG-k-9" value="Add Dog" style="rounded=1;whiteSpace=wrap;html=1;" vertex="1" parent="1">
          <mxGeometry x="310" y="135" width="80" height="20" as="geometry" />
        </mxCell>
        <mxCell id="DNH00c0iW3-mDj3kYG-k-11" value="" style="rounded=0;whiteSpace=wrap;html=1;" vertex="1" parent="1">
          <mxGeometry x="40" y="400" width="360" height="280" as="geometry" />
        </mxCell>
        <mxCell id="DNH00c0iW3-mDj3kYG-k-12" value="New Dog Form" style="text;html=1;strokeColor=none;fillColor=none;align=center;verticalAlign=middle;whiteSpace=wrap;rounded=0;" vertex="1" parent="1">
          <mxGeometry x="40" y="370" width="100" height="30" as="geometry" />
        </mxCell>
        <mxCell id="DNH00c0iW3-mDj3kYG-k-13" value="" style="endArrow=classic;html=1;rounded=0;" edge="1" parent="1">
          <mxGeometry width="50" height="50" relative="1" as="geometry">
            <mxPoint x="350.5769230769231" y="155" as="sourcePoint" />
            <mxPoint x="359.9999999999999" y="400" as="targetPoint" />
            <Array as="points" />
          </mxGeometry>
        </mxCell>
        <mxCell id="DNH00c0iW3-mDj3kYG-k-14" value="" style="rounded=0;whiteSpace=wrap;html=1;" vertex="1" parent="1">
          <mxGeometry x="80" y="450" width="280" height="190" as="geometry" />
        </mxCell>
        <mxCell id="DNH00c0iW3-mDj3kYG-k-15" value="Name: __________&lt;br&gt;&lt;br&gt;&lt;div style=&quot;text-align: left;&quot;&gt;&lt;span style=&quot;background-color: initial;&quot;&gt;City:&lt;/span&gt;&lt;/div&gt;" style="text;html=1;strokeColor=none;fillColor=none;align=center;verticalAlign=middle;whiteSpace=wrap;rounded=0;" vertex="1" parent="1">
          <mxGeometry x="110" y="470" width="220" height="130" as="geometry" />
        </mxCell>
        <mxCell id="DNH00c0iW3-mDj3kYG-k-16" value="Select" style="rounded=0;whiteSpace=wrap;html=1;" vertex="1" parent="1">
          <mxGeometry x="200" y="540" width="90" height="20" as="geometry" />
        </mxCell>
        <mxCell id="DNH00c0iW3-mDj3kYG-k-18" value="Submit" style="rounded=1;whiteSpace=wrap;html=1;" vertex="1" parent="1">
          <mxGeometry x="260" y="600" width="90" height="25" as="geometry" />
        </mxCell>
        <mxCell id="DNH00c0iW3-mDj3kYG-k-20" value="" style="endArrow=classic;html=1;rounded=0;entryX=0.819;entryY=1.004;entryDx=0;entryDy=0;entryPerimeter=0;" edge="1" parent="1" source="DNH00c0iW3-mDj3kYG-k-18" target="DNH00c0iW3-mDj3kYG-k-1">
          <mxGeometry width="50" height="50" relative="1" as="geometry">
            <mxPoint x="-34.67675731144186" y="580" as="sourcePoint" />
            <mxPoint x="300" y="440" as="targetPoint" />
          </mxGeometry>
        </mxCell>
        <mxCell id="DNH00c0iW3-mDj3kYG-k-21" value="" style="endArrow=classic;html=1;rounded=0;entryX=-0.006;entryY=0.471;entryDx=0;entryDy=0;entryPerimeter=0;" edge="1" parent="1" source="DNH00c0iW3-mDj3kYG-k-3" target="DNH00c0iW3-mDj3kYG-k-5">
          <mxGeometry width="50" height="50" relative="1" as="geometry">
            <mxPoint x="370" y="270" as="sourcePoint" />
            <mxPoint x="420" y="220" as="targetPoint" />
          </mxGeometry>
        </mxCell>
        <mxCell id="DNH00c0iW3-mDj3kYG-k-23" value="" style="rounded=0;whiteSpace=wrap;html=1;" vertex="1" parent="1">
          <mxGeometry x="440" y="400" width="360" height="280" as="geometry" />
        </mxCell>
        <mxCell id="DNH00c0iW3-mDj3kYG-k-24" value="Main View" style="text;html=1;strokeColor=none;fillColor=none;align=center;verticalAlign=middle;whiteSpace=wrap;rounded=0;" vertex="1" parent="1">
          <mxGeometry x="440" y="370" width="60" height="30" as="geometry" />
        </mxCell>
        <mxCell id="DNH00c0iW3-mDj3kYG-k-25" value="" style="rounded=0;whiteSpace=wrap;html=1;" vertex="1" parent="1">
          <mxGeometry x="440" y="400" width="360" height="40" as="geometry" />
        </mxCell>
        <mxCell id="DNH00c0iW3-mDj3kYG-k-26" value="Walkers Dogs Cities" style="text;html=1;strokeColor=none;fillColor=none;align=center;verticalAlign=middle;whiteSpace=wrap;rounded=0;" vertex="1" parent="1">
          <mxGeometry x="460" y="405" width="320" height="30" as="geometry" />
        </mxCell>
        <mxCell id="DNH00c0iW3-mDj3kYG-k-27" value="" style="rounded=0;whiteSpace=wrap;html=1;" vertex="1" parent="1">
          <mxGeometry x="40" y="720" width="360" height="280" as="geometry" />
        </mxCell>
        <mxCell id="DNH00c0iW3-mDj3kYG-k-28" value="Walkers" style="text;html=1;strokeColor=none;fillColor=none;align=center;verticalAlign=middle;whiteSpace=wrap;rounded=0;" vertex="1" parent="1">
          <mxGeometry x="40" y="690" width="60" height="30" as="geometry" />
        </mxCell>
        <mxCell id="DNH00c0iW3-mDj3kYG-k-29" value="&lt;ul&gt;&lt;li&gt;Walker Name [Add Dog]&lt;/li&gt;&lt;li&gt;Walker Name [Add Dog]&lt;/li&gt;&lt;li&gt;Walker Name&amp;nbsp;[Add Dog]&lt;/li&gt;&lt;li&gt;Walker Name&amp;nbsp;[Add Dog]&lt;/li&gt;&lt;li&gt;Walker Name&amp;nbsp;[Add Dog]&lt;/li&gt;&lt;/ul&gt;" style="rounded=0;whiteSpace=wrap;html=1;" vertex="1" parent="1">
          <mxGeometry x="80" y="790" width="270" height="170" as="geometry" />
        </mxCell>
        <mxCell id="DNH00c0iW3-mDj3kYG-k-31" value="City Select" style="rounded=0;whiteSpace=wrap;html=1;" vertex="1" parent="1">
          <mxGeometry x="260" y="800" width="80" height="20" as="geometry" />
        </mxCell>
        <mxCell id="DNH00c0iW3-mDj3kYG-k-32" value="" style="rounded=0;whiteSpace=wrap;html=1;" vertex="1" parent="1">
          <mxGeometry x="440" y="720" width="360" height="280" as="geometry" />
        </mxCell>
        <mxCell id="DNH00c0iW3-mDj3kYG-k-33" value="" style="rounded=0;whiteSpace=wrap;html=1;" vertex="1" parent="1">
          <mxGeometry x="480" y="790" width="280" height="170" as="geometry" />
        </mxCell>
        <mxCell id="DNH00c0iW3-mDj3kYG-k-34" value="Available Dogs" style="text;html=1;strokeColor=none;fillColor=none;align=center;verticalAlign=middle;whiteSpace=wrap;rounded=0;" vertex="1" parent="1">
          <mxGeometry x="480" y="795" width="60" height="30" as="geometry" />
        </mxCell>
        <mxCell id="DNH00c0iW3-mDj3kYG-k-35" value="&lt;ul&gt;&lt;li&gt;Dog Name&lt;/li&gt;&lt;li&gt;Dog Name&lt;/li&gt;&lt;li&gt;Dog Name&lt;/li&gt;&lt;li&gt;Dog Name&lt;/li&gt;&lt;/ul&gt;" style="rounded=0;whiteSpace=wrap;html=1;align=left;" vertex="1" parent="1">
          <mxGeometry x="560" y="820" width="120" height="120" as="geometry" />
        </mxCell>
        <mxCell id="DNH00c0iW3-mDj3kYG-k-36" value="" style="endArrow=classic;html=1;rounded=0;" edge="1" parent="1" target="DNH00c0iW3-mDj3kYG-k-5">
          <mxGeometry width="50" height="50" relative="1" as="geometry">
            <mxPoint x="640" y="850" as="sourcePoint" />
            <mxPoint x="690" y="800" as="targetPoint" />
          </mxGeometry>
        </mxCell>
        <mxCell id="DNH00c0iW3-mDj3kYG-k-37" value="" style="endArrow=classic;html=1;rounded=0;exitX=0.997;exitY=0.533;exitDx=0;exitDy=0;exitPerimeter=0;entryX=0.001;entryY=0.509;entryDx=0;entryDy=0;entryPerimeter=0;" edge="1" parent="1" source="DNH00c0iW3-mDj3kYG-k-29" target="DNH00c0iW3-mDj3kYG-k-32">
          <mxGeometry width="50" height="50" relative="1" as="geometry">
            <mxPoint x="440" y="660" as="sourcePoint" />
            <mxPoint x="490" y="610" as="targetPoint" />
          </mxGeometry>
        </mxCell>
        <mxCell id="DNH00c0iW3-mDj3kYG-k-38" value="" style="endArrow=classic;html=1;rounded=0;entryX=0.996;entryY=0.002;entryDx=0;entryDy=0;entryPerimeter=0;" edge="1" parent="1" target="DNH00c0iW3-mDj3kYG-k-27">
          <mxGeometry width="50" height="50" relative="1" as="geometry">
            <mxPoint x="580" y="410" as="sourcePoint" />
            <mxPoint x="490" y="410" as="targetPoint" />
          </mxGeometry>
        </mxCell>
        <mxCell id="DNH00c0iW3-mDj3kYG-k-39" value="" style="endArrow=classic;html=1;rounded=0;entryX=1.001;entryY=0.995;entryDx=0;entryDy=0;entryPerimeter=0;" edge="1" parent="1" target="DNH00c0iW3-mDj3kYG-k-1">
          <mxGeometry width="50" height="50" relative="1" as="geometry">
            <mxPoint x="620" y="420" as="sourcePoint" />
            <mxPoint x="490" y="410" as="targetPoint" />
          </mxGeometry>
        </mxCell>
        <mxCell id="DNH00c0iW3-mDj3kYG-k-40" value="" style="rounded=0;whiteSpace=wrap;html=1;" vertex="1" parent="1">
          <mxGeometry x="880" y="80" width="360" height="280" as="geometry" />
        </mxCell>
        <mxCell id="DNH00c0iW3-mDj3kYG-k-41" value="Cities" style="text;html=1;strokeColor=none;fillColor=none;align=center;verticalAlign=middle;whiteSpace=wrap;rounded=0;" vertex="1" parent="1">
          <mxGeometry x="880" y="51" width="60" height="30" as="geometry" />
        </mxCell>
        <mxCell id="DNH00c0iW3-mDj3kYG-k-42" value="" style="endArrow=classic;html=1;rounded=0;exitX=0.634;exitY=0.084;exitDx=0;exitDy=0;exitPerimeter=0;entryX=0.005;entryY=0.799;entryDx=0;entryDy=0;entryPerimeter=0;" edge="1" parent="1" source="DNH00c0iW3-mDj3kYG-k-26" target="DNH00c0iW3-mDj3kYG-k-40">
          <mxGeometry width="50" height="50" relative="1" as="geometry">
            <mxPoint x="780" y="540" as="sourcePoint" />
            <mxPoint x="830" y="490" as="targetPoint" />
          </mxGeometry>
        </mxCell>
        <mxCell id="DNH00c0iW3-mDj3kYG-k-43" value="&lt;ul&gt;&lt;li&gt;City Name&lt;/li&gt;&lt;li&gt;City Name&lt;/li&gt;&lt;li&gt;City Name&lt;/li&gt;&lt;li&gt;City Name&lt;/li&gt;&lt;/ul&gt;" style="rounded=0;whiteSpace=wrap;html=1;align=left;" vertex="1" parent="1">
          <mxGeometry x="920" y="140" width="290" height="180" as="geometry" />
        </mxCell>
        <mxCell id="DNH00c0iW3-mDj3kYG-k-44" value="Add a City" style="rounded=1;whiteSpace=wrap;html=1;" vertex="1" parent="1">
          <mxGeometry x="1120" y="155" width="70" height="31" as="geometry" />
        </mxCell>
        <mxCell id="DNH00c0iW3-mDj3kYG-k-47" value="&lt;ul&gt;&lt;li&gt;City Name&lt;/li&gt;&lt;li&gt;City Name&lt;/li&gt;&lt;li&gt;City Name&lt;/li&gt;&lt;li&gt;City Name&lt;/li&gt;&lt;/ul&gt;" style="rounded=0;whiteSpace=wrap;html=1;align=left;" vertex="1" parent="1">
          <mxGeometry x="1280" y="140" width="290" height="180" as="geometry" />
        </mxCell>
        <mxCell id="DNH00c0iW3-mDj3kYG-k-48" value="Add" style="rounded=1;whiteSpace=wrap;html=1;" vertex="1" parent="1">
          <mxGeometry x="1500" y="160.5" width="50" height="20" as="geometry" />
        </mxCell>
        <mxCell id="DNH00c0iW3-mDj3kYG-k-49" value="______" style="text;html=1;strokeColor=none;fillColor=none;align=center;verticalAlign=middle;whiteSpace=wrap;rounded=0;" vertex="1" parent="1">
          <mxGeometry x="1430" y="160.5" width="60" height="30" as="geometry" />
        </mxCell>
        <mxCell id="DNH00c0iW3-mDj3kYG-k-50" value="" style="endArrow=classic;html=1;rounded=0;entryX=-0.001;entryY=0.201;entryDx=0;entryDy=0;entryPerimeter=0;" edge="1" parent="1" source="DNH00c0iW3-mDj3kYG-k-44" target="DNH00c0iW3-mDj3kYG-k-47">
          <mxGeometry width="50" height="50" relative="1" as="geometry">
            <mxPoint x="1190" y="220" as="sourcePoint" />
            <mxPoint x="1240" y="170" as="targetPoint" />
          </mxGeometry>
        </mxCell>
        <mxCell id="DNH00c0iW3-mDj3kYG-k-51" value="" style="endArrow=classic;html=1;rounded=0;entryX=1.008;entryY=0.138;entryDx=0;entryDy=0;entryPerimeter=0;" edge="1" parent="1" source="DNH00c0iW3-mDj3kYG-k-48" target="DNH00c0iW3-mDj3kYG-k-40">
          <mxGeometry width="50" height="50" relative="1" as="geometry">
            <mxPoint x="1190" y="220" as="sourcePoint" />
            <mxPoint x="1240" y="170" as="targetPoint" />
          </mxGeometry>
        </mxCell>
        <mxCell id="DNH00c0iW3-mDj3kYG-k-52" value="" style="rounded=0;whiteSpace=wrap;html=1;" vertex="1" parent="1">
          <mxGeometry x="40" y="1040" width="360" height="280" as="geometry" />
        </mxCell>
        <mxCell id="DNH00c0iW3-mDj3kYG-k-53" value="Walker Details Form" style="text;html=1;strokeColor=none;fillColor=none;align=center;verticalAlign=middle;whiteSpace=wrap;rounded=0;" vertex="1" parent="1">
          <mxGeometry x="40" y="1010" width="130" height="30" as="geometry" />
        </mxCell>
        <mxCell id="DNH00c0iW3-mDj3kYG-k-54" value="" style="endArrow=classic;html=1;rounded=0;entryX=0.448;entryY=-0.002;entryDx=0;entryDy=0;entryPerimeter=0;" edge="1" parent="1" target="DNH00c0iW3-mDj3kYG-k-52">
          <mxGeometry width="50" height="50" relative="1" as="geometry">
            <mxPoint x="210" y="960" as="sourcePoint" />
            <mxPoint x="300" y="970" as="targetPoint" />
          </mxGeometry>
        </mxCell>
        <mxCell id="DNH00c0iW3-mDj3kYG-k-55" value="" style="rounded=0;whiteSpace=wrap;html=1;" vertex="1" parent="1">
          <mxGeometry x="80" y="1100" width="280" height="180" as="geometry" />
        </mxCell>
        <mxCell id="DNH00c0iW3-mDj3kYG-k-56" value="Update" style="rounded=1;whiteSpace=wrap;html=1;" vertex="1" parent="1">
          <mxGeometry x="280" y="1250" width="70" height="20" as="geometry" />
        </mxCell>
        <mxCell id="DNH00c0iW3-mDj3kYG-k-57" value="" style="rounded=0;whiteSpace=wrap;html=1;" vertex="1" parent="1">
          <mxGeometry x="110" y="1120" width="230" height="120" as="geometry" />
        </mxCell>
        <mxCell id="DNH00c0iW3-mDj3kYG-k-58" value="Name: _________" style="text;html=1;strokeColor=none;fillColor=none;align=center;verticalAlign=middle;whiteSpace=wrap;rounded=0;" vertex="1" parent="1">
          <mxGeometry x="120" y="1130" width="130" height="30" as="geometry" />
        </mxCell>
        <mxCell id="DNH00c0iW3-mDj3kYG-k-60" value="Cities:" style="text;html=1;strokeColor=none;fillColor=none;align=center;verticalAlign=middle;whiteSpace=wrap;rounded=0;" vertex="1" parent="1">
          <mxGeometry x="140" y="1165" width="60" height="30" as="geometry" />
        </mxCell>
        <mxCell id="DNH00c0iW3-mDj3kYG-k-61" value="All Cities with Checkboxes" style="rounded=0;whiteSpace=wrap;html=1;" vertex="1" parent="1">
          <mxGeometry x="200" y="1165" width="120" height="60" as="geometry" />
        </mxCell>
        <mxCell id="DNH00c0iW3-mDj3kYG-k-62" value="" style="endArrow=classic;html=1;rounded=0;entryX=0.776;entryY=1.001;entryDx=0;entryDy=0;entryPerimeter=0;" edge="1" parent="1" source="DNH00c0iW3-mDj3kYG-k-56" target="DNH00c0iW3-mDj3kYG-k-27">
          <mxGeometry width="50" height="50" relative="1" as="geometry">
            <mxPoint x="430" y="1230" as="sourcePoint" />
            <mxPoint x="480" y="1180" as="targetPoint" />
          </mxGeometry>
        </mxCell>
      </root>
    </mxGraphModel>
  </diagram>
</mxfile>
